<svg width="54" height="55" viewBox="0 0 54 55" fill="none" xmlns="http://www.w3.org/2000/svg">
<rect y="0.970947" width="53.4487" height="53.4481" rx="26.724" fill="#0051FE" style="fill:#0051FE;fill:color(display-p3 0.0000 0.3176 0.9961);fill-opacity:1;"/>
<path fill-rule="evenodd" clip-rule="evenodd" d="M29.6214 42.0518C30.4699 41.993 30.9 42.4972 30.6904 43.6866C30.9804 43.642 31.5441 43.1192 31.8176 42.6713C32.8381 41.3914 34.1392 41.3514 36.343 40.0315C41.4341 36.9824 45.5552 32.0454 45.1543 26.2397C44.8087 21.2355 42.0491 18.4255 37.1952 18.3921C34.6027 18.3745 32.3668 19.3758 30.3073 20.8494C29.7521 21.2463 29.2056 21.6557 28.659 22.065C27.8725 22.6541 27.0861 23.2431 26.2745 23.7946C24.6206 24.9194 22.7982 25.5837 20.7543 25.4603C19.8529 25.4054 19.1083 25.0409 18.6243 24.2591C17.8933 23.0755 18.4812 21.9213 19.8588 21.8429C20.1953 21.8237 20.5328 21.828 20.8705 21.8323C21.1858 21.8364 21.5013 21.8404 21.8164 21.8253C23.97 21.7253 25.7748 20.9513 27.2542 18.9271C27.2542 18.9271 25.8175 17.879 24.2068 17.3918C22.7371 16.9472 21.6651 16.9699 20.5584 16.8696C20.5584 16.8696 20.0741 15.8958 20.2943 14.3618C20.5145 12.8278 21.153 11.8922 21.153 11.8922C21.153 11.8922 20.4425 11.7934 19.9205 11.8283C16.2969 12.2288 14.3485 14.8395 15.195 18.6332C15.2952 19.0821 15.1582 19.3168 14.903 19.5013C11.3033 22.1035 10.5351 25.764 11.1289 29.8457C11.4542 32.0894 12.1611 33.662 13.6602 35.5197C14.8417 35.2307 15.5199 34.7184 15.9455 34.1822C15.2344 36.2315 14.2467 37.2813 13.3529 37.9517C12.8273 38.3459 11.8262 38.8216 11.5149 38.9655C12.1929 39.2693 13.6681 39.7033 14.3435 39.8325C15.2137 39.999 16.2873 39.8219 17.2854 39.8325C18.4677 39.8451 19.1097 40.2613 19.4898 40.4435C22.8544 42.0641 25.9531 42.3085 29.6214 42.0518ZM20.8273 39.4379L20.8283 39.4382L20.8267 39.4398C20.8273 39.4393 20.828 39.4388 20.8287 39.4383C21.1095 39.518 21.3923 39.6044 21.6775 39.6916C22.3033 39.8827 22.9401 40.0773 23.5898 40.2118C24.5122 40.4023 25.4214 40.5389 26.3158 40.6175C31.2457 41.0518 35.7258 39.7256 39.4897 35.9518C42.1038 33.3319 44.2119 30.2428 43.8454 26.7843C43.7865 26.2282 43.5648 25.4384 42.8553 25.0226C41.3734 24.3277 39.0124 24.6003 37.5448 26.1355C37.5321 26.1475 37.5201 26.1596 37.5087 26.1716C36.5211 27.2223 35.6241 28.3591 34.7284 29.4942C34.5951 29.6631 34.4619 29.832 34.3283 30.0005C33.2173 31.4016 31.9749 32.6205 30.2838 33.3044C29.4105 33.6574 28.5433 33.8858 27.6682 33.8519C27.6409 33.8509 27.6135 33.8496 27.5862 33.848C26.7643 33.8005 25.9354 33.518 25.0888 32.887L25.0893 32.8888C25.0885 32.8882 25.0877 32.8876 25.087 32.887C25.1533 33.1645 25.2539 33.4913 25.4002 33.7697C25.7467 34.4289 25.9913 35.4096 24.9439 36.3515C24.0825 37.1261 23.13 37.7983 22.1475 38.4917C21.7116 38.7993 21.2697 39.1111 20.8273 39.4379ZM30.4738 28.9228C30.4542 29.7458 29.7782 30.3787 28.9454 30.3552C28.1204 30.3337 27.4757 29.6517 27.5031 28.8327C27.5325 28.0194 28.2301 27.3571 29.0355 27.3826C29.8468 27.41 30.4934 28.1037 30.4738 28.9228Z" fill="white" style="fill:white;fill:white;fill-opacity:1;"/>
</svg>
