<svg width="71" height="24" viewBox="0 0 71 24" fill="none" xmlns="http://www.w3.org/2000/svg">
<path d="M61.2733 19.3981C59.9247 19.3981 58.7318 19.1042 57.6945 18.5164C56.6744 17.9285 55.8792 17.0987 55.3086 16.0268C54.7381 14.9549 54.4528 13.6928 54.4528 12.2405C54.4528 10.771 54.7381 9.50887 55.3086 8.45425C55.8792 7.38234 56.6744 6.56112 57.6945 5.99059C58.7318 5.40277 59.9247 5.10886 61.2733 5.10886C62.6564 5.10886 63.7975 5.3509 64.6965 5.83499C65.6128 6.31908 66.2698 6.94148 66.6674 7.70219H66.8489L66.9527 5.34226H70.4537V19.1388H66.7711V16.6751H66.5896C66.1574 17.505 65.4658 18.1706 64.5149 18.672C63.5641 19.1561 62.4835 19.3981 61.2733 19.3981ZM62.3884 16.5714C63.3047 16.5714 64.0827 16.3898 64.7224 16.0268C65.3794 15.6637 65.8808 15.1883 66.2265 14.6004C66.5723 13.9953 66.7452 13.3297 66.7452 12.6036V11.7737C66.7452 11.0649 66.5723 10.4252 66.2265 9.85465C65.8808 9.26683 65.3794 8.80003 64.7224 8.45425C64.0827 8.10847 63.3047 7.93559 62.3884 7.93559C61.1263 7.93559 60.1063 8.3073 59.3283 9.05072C58.5503 9.79414 58.1613 10.8574 58.1613 12.2405C58.1613 13.589 58.5503 14.6523 59.3283 15.4303C60.1063 16.191 61.1263 16.5714 62.3884 16.5714Z" fill="url(#paint0_linear_83_23)"/>
<path d="M44.5761 23.729C42.415 23.729 40.7294 23.3313 39.5191 22.5361C38.3262 21.7581 37.6606 20.6948 37.5223 19.3463H41.0233C41.1616 19.9859 41.5419 20.4614 42.1643 20.7726C42.804 21.0838 43.6252 21.2394 44.628 21.2394C45.8728 21.2394 46.8669 20.9973 47.6103 20.5133C48.371 20.0292 48.7514 19.2252 48.7514 18.1015V15.7156H48.5958C48.1809 16.5282 47.4979 17.1592 46.5471 17.6087C45.6135 18.0582 44.5848 18.283 43.461 18.283C42.147 18.283 41.006 18.015 40.0378 17.4791C39.0696 16.9258 38.3176 16.1565 37.7816 15.171C37.2629 14.1682 37.0036 13.0099 37.0036 11.6959C37.0036 10.3647 37.2802 9.20634 37.8335 8.22088C38.3867 7.23541 39.1561 6.46606 40.1415 5.91281C41.127 5.35957 42.2681 5.08295 43.5647 5.08295C44.7404 5.08295 45.7691 5.31635 46.6508 5.78315C47.5325 6.23266 48.1895 6.84641 48.6217 7.62441H48.8033L48.9589 5.34228H52.4339V17.6606C52.4339 19.6142 51.7769 21.1097 50.463 22.1471C49.1663 23.2017 47.204 23.729 44.5761 23.729ZM44.7058 15.56C45.9333 15.56 46.9101 15.2402 47.6363 14.6005C48.3797 13.9435 48.7514 13.1136 48.7514 12.1109V11.3847C48.7514 10.3301 48.3883 9.46567 47.6622 8.79141C46.9533 8.11714 45.9852 7.78001 44.7577 7.78001C43.5301 7.78001 42.5447 8.13443 41.8013 8.84328C41.0751 9.55212 40.7121 10.4944 40.7121 11.67C40.7121 12.8802 41.0751 13.8311 41.8013 14.5227C42.5274 15.2142 43.4956 15.56 44.7058 15.56Z" fill="url(#paint1_linear_83_23)"/>
<path d="M27.2422 19.3981C25.617 19.3981 24.1907 19.1129 22.9632 18.5423C21.7357 17.9718 20.7761 17.1506 20.0846 16.0787C19.4103 15.0068 19.0732 13.7274 19.0732 12.2405C19.0732 10.7537 19.4103 9.48296 20.0846 8.42834C20.7588 7.35643 21.7097 6.53521 22.9372 5.96468C24.1648 5.37686 25.5997 5.08295 27.2422 5.08295C28.8846 5.08295 30.3196 5.36821 31.5471 5.93875C32.7746 6.50928 33.7255 7.3305 34.3998 8.40241C35.074 9.45703 35.4112 10.7364 35.4112 12.2405C35.4112 13.7101 35.074 14.9808 34.3998 16.0527C33.7255 17.1246 32.7746 17.9545 31.5471 18.5423C30.3369 19.1129 28.9019 19.3981 27.2422 19.3981ZM27.2422 16.5455C28.6426 16.5455 29.7404 16.1565 30.5357 15.3785C31.331 14.6005 31.7286 13.5545 31.7286 12.2405C31.7286 10.9093 31.331 9.86332 30.5357 9.10261C29.7577 8.32461 28.6599 7.93561 27.2422 7.93561C25.8418 7.93561 24.7439 8.32461 23.9486 9.10261C23.1706 9.88061 22.7816 10.9266 22.7816 12.2405C22.7816 13.5545 23.1706 14.6005 23.9486 15.3785C24.7439 16.1565 25.8418 16.5455 27.2422 16.5455Z" fill="url(#paint2_linear_83_23)"/>
<path d="M8.99885 19.3722C6.94148 19.3722 5.25582 19.1128 3.94186 18.5942C2.62791 18.0582 1.65109 17.3234 1.0114 16.3898C0.371711 15.4562 0.0345777 14.3757 0 13.1482H3.99373C4.02831 14.2892 4.47782 15.171 5.34226 15.7934C6.22399 16.3985 7.48608 16.701 9.12852 16.701C10.6672 16.701 11.8083 16.459 12.5517 15.9749C13.3124 15.4735 13.6928 14.7993 13.6928 13.9521C13.6928 13.226 13.5026 12.69 13.1222 12.3443C12.7419 11.9812 12.1627 11.7132 11.3847 11.5403C10.624 11.3674 9.66448 11.2118 8.50612 11.0735C6.81181 10.8661 5.36819 10.5808 4.17526 10.2177C2.98233 9.83737 2.06602 9.29277 1.42633 8.58392C0.803932 7.85779 0.492733 6.87232 0.492733 5.62753C0.492733 3.82948 1.23615 2.44637 2.723 1.4782C4.20984 0.492733 6.23264 0 8.79139 0C11.2464 0 13.1828 0.501377 14.6004 1.50413C16.0354 2.4896 16.8134 3.87271 16.9344 5.65346H13.0704C12.9839 4.61613 12.5431 3.85542 11.7478 3.37133C10.9698 2.88724 9.93245 2.6452 8.63579 2.6452C7.30454 2.6452 6.26721 2.8786 5.52379 3.3454C4.78037 3.79491 4.40866 4.41731 4.40866 5.21259C4.40866 5.85228 4.58155 6.33637 4.92733 6.66486C5.2731 6.99335 5.8177 7.23539 6.56112 7.39099C7.32183 7.54659 8.3073 7.70219 9.51752 7.85779C11.2637 8.06526 12.7332 8.35052 13.9262 8.71359C15.1364 9.07666 16.0527 9.64719 16.6751 10.4252C17.3148 11.1859 17.6346 12.2664 17.6346 13.6668C17.6346 15.4476 16.8912 16.848 15.4044 17.868C13.9348 18.8708 11.7997 19.3722 8.99885 19.3722Z" fill="url(#paint3_linear_83_23)"/>
<defs>
<linearGradient id="paint0_linear_83_23" x1="40.0669" y1="-4.07154" x2="14.8468" y2="37.0976" gradientUnits="userSpaceOnUse">
<stop stop-color="#F3DBC0"/>
<stop offset="1" stop-color="#76AAEA"/>
</linearGradient>
<linearGradient id="paint1_linear_83_23" x1="40.067" y1="-4.07151" x2="14.8468" y2="37.0976" gradientUnits="userSpaceOnUse">
<stop stop-color="#F3DBC0"/>
<stop offset="1" stop-color="#76AAEA"/>
</linearGradient>
<linearGradient id="paint2_linear_83_23" x1="40.067" y1="-4.07151" x2="14.8469" y2="37.0976" gradientUnits="userSpaceOnUse">
<stop stop-color="#F3DBC0"/>
<stop offset="1" stop-color="#76AAEA"/>
</linearGradient>
<linearGradient id="paint3_linear_83_23" x1="40.0669" y1="-4.07153" x2="14.8468" y2="37.0976" gradientUnits="userSpaceOnUse">
<stop stop-color="#F3DBC0"/>
<stop offset="1" stop-color="#76AAEA"/>
</linearGradient>
</defs>
</svg>
