<svg width="32" height="32" viewBox="0 0 32 32" fill="none" xmlns="http://www.w3.org/2000/svg">
<rect width="32" height="32" rx="8" fill="#A99FEC"/>
<path fill-rule="evenodd" clip-rule="evenodd" d="M6.66823 26C5.30783 26 4 25.4332 4 22.972C4 16.7039 12.4594 7 20.3071 7C24.7721 7 26.5517 10.1337 26.5517 13.6931C26.5517 18.2619 23.6219 23.4857 20.7086 23.4857C19.7846 23.4857 19.3311 22.972 19.3311 22.1569C19.3311 21.9448 19.3659 21.7149 19.4356 21.4666C18.4413 23.1842 16.5229 24.7783 14.7261 24.7783C13.4183 24.7783 12.7552 23.9461 12.7552 22.7776C12.7552 22.352 12.8426 21.9093 12.9997 21.4672C11.7096 23.4679 9.5461 26 6.66823 26ZM17.604 13.3036C17.604 12.4182 18.0923 11.7988 18.8073 11.7988C19.5053 11.7988 19.9936 12.4182 19.9936 13.3036C19.9936 14.189 19.5059 14.8267 18.808 14.8267C18.0923 14.8267 17.604 14.189 17.604 13.3036ZM22.5402 11.7988C21.8245 11.7988 21.3369 12.4182 21.3369 13.3036C21.3369 14.189 21.8245 14.8267 22.5402 14.8267C23.2381 14.8267 23.7258 14.189 23.7258 13.3036C23.7258 12.4182 23.2375 11.7988 22.5402 11.7988Z" fill="#F5F2FE"/>
</svg>
