<svg width="31" height="28" viewBox="0 0 31 28" fill="none" xmlns="http://www.w3.org/2000/svg">
<path d="M29.9892 0.951342C29.428 0.365405 28.6617 0.0239677 27.854 0C27.4392 0.000803916 27.0288 0.0856625 26.6472 0.249532L0.963502 11.4629C0.660594 11.5873 0.404583 11.8052 0.232233 12.0854C0.0598834 12.3656 -0.0199382 12.6937 0.00423122 13.0225V14.0362C-0.0123732 14.3782 0.0831703 14.7163 0.276114 14.9981C0.469059 15.28 0.748676 15.49 1.07181 15.5958L7.74028 17.8416L9.75166 24.6881C9.88687 25.168 10.1479 25.6024 10.5073 25.9455C10.8667 26.2885 11.3112 26.5276 11.794 26.6376C11.9789 26.6606 12.166 26.6606 12.351 26.6376C13.0372 26.6352 13.6963 26.3672 14.1922 25.889L16.6522 23.5496L21.4176 27.3394C21.8751 27.6994 22.4238 27.9225 23.0011 27.9832C23.5784 28.0439 24.1609 27.9396 24.6822 27.6825L25.1928 27.4173C25.6294 27.1911 26.0086 26.8666 26.301 26.4691C26.5935 26.0716 26.7913 25.6116 26.8793 25.1248L30.9484 3.91454C31.044 3.37918 31.0063 2.8283 30.8389 2.31119C30.6715 1.79408 30.3796 1.32687 29.9892 0.951342ZM24.6049 24.7505C24.5796 24.8852 24.5249 25.0125 24.4446 25.1231C24.3643 25.2338 24.2605 25.3249 24.1407 25.3899L23.6301 25.655C23.5295 25.7066 23.4181 25.7334 23.3052 25.733C23.1405 25.7299 22.9819 25.6693 22.8565 25.5615L17.039 20.8827C16.9003 20.7588 16.7215 20.6904 16.5362 20.6904C16.3509 20.6904 16.172 20.7588 16.0333 20.8827L12.5985 24.1422C12.5354 24.1889 12.4601 24.216 12.3819 24.2202V18.7149C12.3821 18.6068 12.4042 18.4999 12.4467 18.4007C12.4893 18.3015 12.5515 18.212 12.6295 18.1379C17.5651 13.4591 20.5202 10.8391 22.2841 9.34186C22.3402 9.2901 22.3855 9.22758 22.4174 9.15795C22.4493 9.08833 22.4671 9.013 22.4697 8.93637C22.4759 8.8614 22.4652 8.78598 22.4384 8.71576C22.4116 8.64555 22.3694 8.58234 22.315 8.53088C22.2396 8.43539 22.1346 8.36814 22.0168 8.33987C21.899 8.3116 21.7752 8.32394 21.6652 8.37492L9.96827 15.8141C9.86436 15.864 9.75071 15.8899 9.63562 15.8899C9.52052 15.8899 9.40688 15.864 9.30297 15.8141L2.32505 13.4124L27.4982 2.40175C27.5897 2.37986 27.6851 2.37986 27.7767 2.40175C27.8886 2.4047 27.9988 2.4312 28.1 2.47954C28.2013 2.52788 28.2914 2.597 28.3646 2.68247C28.4702 2.79556 28.5477 2.93225 28.5907 3.08136C28.6337 3.23046 28.6411 3.38772 28.6122 3.54024L24.6049 24.7505Z" fill="#31DEAD"/>
</svg>
