<svg width="38" height="31" viewBox="0 0 38 31" fill="none" xmlns="http://www.w3.org/2000/svg">
<path d="M34.1312 8.82382C34.1312 8.4846 34.1243 8.14922 34.1086 7.81613C35.6323 6.73566 36.9544 5.38315 38 3.83545C36.58 4.44349 35.069 4.8369 33.5215 5.00146C35.1321 4.05826 36.3673 2.54979 36.951 0.739552C35.4429 1.60991 33.7748 2.23214 32.0011 2.55636C30.58 1.01753 28.552 0.0373988 26.3101 0.000977211C22.0043 -0.0667632 18.5139 3.39584 18.5139 7.73391C18.5139 8.35053 18.5817 8.94852 18.7162 9.52597C12.2323 9.1289 6.48676 5.91716 2.64345 1.07545C1.97283 2.23545 1.58809 3.59116 1.58809 5.044C1.58809 7.79189 2.96451 10.2342 5.05585 11.6754C3.77555 11.6202 2.57622 11.2512 1.52428 10.6462V10.7471C1.52428 14.5877 4.2125 17.8055 7.77946 18.5562C7.12554 18.7332 6.43582 18.8253 5.72646 18.822C5.23361 18.8196 4.74235 18.7684 4.26063 18.6693C5.25177 21.8165 8.13236 24.1159 11.5427 24.1925C8.87362 26.2985 5.51144 27.5565 1.8611 27.5477C1.2317 27.5477 0.609753 27.5075 0 27.4346C3.4516 29.6877 7.54875 31 11.9532 31C26.2904 31.0033 34.1312 19.1276 34.1312 8.82382Z" fill="#31DEAD"/>
</svg>
